<svg id="Layer_1" xmlns="http://www.w3.org/2000/svg" viewBox="0 0 500 500"><style>.st0{fill:#fff}.st1{fill:#1173c2}</style><path class="st0" d="M250 494.5C115.2 494.5 5.5 384.8 5.5 250S115.2 5.5 250 5.5 494.5 115.2 494.5 250 384.8 494.5 250 494.5z"/><path class="st1" d="M373.8 182.5h-69.1v-16.1c0-11.6-9.5-16.1-21.1-16.1h-67.2c-11.6 0-21.1 4.5-21.1 16.1v16.1h-69.1c-11.6 0-21.1 9.5-21.1 21.1v125c0 11.6 9.5 21.1 21.1 21.1h247.6c11.6 0 21.1-9.5 21.1-21.1v-125c0-11.6-9.5-21.1-21.1-21.1zM250 327.8c-31.5 0-57.1-25.5-57.1-57.1s25.5-57.1 57.1-57.1c31.5 0 57.1 25.5 57.1 57.1s-25.6 57.1-57.1 57.1zm.5-20c-20.8 0-37.6-16.8-37.6-37.6s16.8-37.6 37.6-37.6 37.6 16.8 37.6 37.6-16.8 37.6-37.6 37.6z"/></svg>