<svg xmlns="http://www.w3.org/2000/svg" viewBox="0 0 500 500"><path d="M60.5 88l-44.1-.1c-3.3.4-5.7 2.1-5.7 8.1v29.1c0 5.2 1.6 7.5 5.7 8.1h44.1c3.2-.5 5.5-2.3 5.5-8.1V96c0-5.1-1.5-7.4-5.5-8zM482 87.8H133.2c-4.1.1-7.2 1.4-7.2 8.2v29.1c0 5.9 2 8 7.2 8.2H482c5.2-.2 7.2-2.4 7.2-8.2V96c0-6.8-3.1-8-7.2-8.2zM60.5 229.9l-44.1-.1c-3.3.4-5.7 2.1-5.7 8.1V267c0 5.2 1.6 7.5 5.7 8.1h44.1c3.2-.5 5.5-2.3 5.5-8.1v-29.1c0-5.1-1.5-7.4-5.5-8zM482 229.7H133.2c-4.1.1-7.2 1.4-7.2 8.2V267c0 5.9 2 8 7.2 8.2H482c5.2-.2 7.2-2.4 7.2-8.2v-29.1c0-6.8-3.1-8-7.2-8.2zM60.5 366.8l-44.1-.1c-3.3.4-5.7 2.1-5.7 8.1v29.1c0 5.2 1.6 7.5 5.7 8.1h44.1c3.2-.5 5.5-2.3 5.5-8.1v-29.1c0-5-1.5-7.4-5.5-8zM482 366.6H133.2c-4.1.1-7.2 1.4-7.2 8.2v29.1c0 5.9 2 8 7.2 8.2H482c5.2-.2 7.2-2.4 7.2-8.2v-29.1c0-6.8-3.1-8-7.2-8.2z"/></svg>
