<svg xmlns="http://www.w3.org/2000/svg" viewBox="0 0 500 500"><path d="M250 493.8c-65.1 0-126.3-25.4-172.4-71.4-46-46-71.4-107.2-71.4-172.4 0-65.1 25.4-126.3 71.4-172.4 46-46 107.2-71.4 172.4-71.4 65.1 0 126.3 25.4 172.4 71.4 46 46 71.4 107.2 71.4 172.4 0 65.1-25.4 126.3-71.4 172.4S315.1 493.8 250 493.8zm0-464.6c-59 0-114.4 23-156.1 64.7S29.2 191 29.2 250s23 114.4 64.7 156.1S191 470.8 250 470.8s114.4-23 156.1-64.7S470.8 309 470.8 250s-23-114.4-64.7-156.1S309 29.2 250 29.2z"/><path d="M373.1 234.4H265.4V126.7c0-8.5-7-15.5-15.5-15.5s-15.5 7-15.5 15.5v107.8H126.7c-8.5 0-15.5 7-15.5 15.5s7 15.5 15.5 15.5h107.8v107.8c0 8.5 7 15.5 15.5 15.5s15.5-7 15.5-15.5V265.4h107.8c8.5 0 15.5-7 15.5-15.5s-7-15.5-15.7-15.5z"/></svg>