<svg xmlns="http://www.w3.org/2000/svg" viewBox="0 0 40 40"><path d="M12.5 40c-.1 0-.4 0-.5-.1-.5-.1-.8-.6-.8-1.1V30H3.1C1.4 30 0 28.6 0 26.9V3.1C0 1.4 1.4 0 3.1 0h33.8C38.6 0 40 1.4 40 3.1v23.8c0 1.8-1.4 3.1-3.1 3.1H25.5l-12.1 9.8c-.4.1-.6.2-.9.2zM3.1 2.5c-.4 0-.6.2-.6.6v23.8c0 .4.2.6.6.6h9.4c.8 0 1.2.5 1.2 1.2v7.4l10.5-8.4c.2-.1.5-.2.8-.2h11.9c.4 0 .6-.2.6-.6V3.1c0-.4-.2-.6-.6-.6H3.1z"/><path d="M20.8 10.4l-.9 7.1h-1.1l-.9-7.1c0-.2-.1-.5-.1-.6v-.4c0-.5.1-.9.4-1.1.2-.2.6-.4 1.1-.4s.9.1 1.1.4c.2.2.4.8.4 1.2-.1 0-.1.9 0 .9zm-1.6 8.2c.4 0 .8.1 1.1.5.2.2.5.6.5 1.1 0 .4-.1.8-.5 1-.3.2-.6.4-1.1.4-.4 0-.8-.1-1-.5-.2-.4-.5-.6-.5-1s.1-.8.5-1.1c.3-.2.7-.4 1-.4z"/></svg>
