<svg xmlns="http://www.w3.org/2000/svg" viewBox="0 0 500 500"><path d="M250.7 47.5h203.2c31.1 0 45.7 14.5 45.7 45.8v314.2c0 30.3-14.8 45.1-45.1 45.1h-409C15.1 452.6.4 437.9.4 407.5V93.3c0-31.1 14.5-45.8 45.7-45.8h204.6zm217 271.5c.4-6.2.7-9.8.7-13.4V95c0-15.6-1.1-16.6-17.4-16.6H49.6c-17 0-17.8.7-17.9 17.3V317c5.5-4.4 8.7-6.8 11.8-9.5 35.3-30.9 70.7-61.8 106-92.8 26-22.8 46.7-23.2 73-1.4 14.7 12.2 29.3 24.4 44 36.7 17.5 14.5 34.9 29 52.7 43.8 9.1-7.2 17.2-13.6 25.3-20 23-18.2 43.2-18.2 66.5.2 18.3 14.2 36.3 28.8 56.7 45zm-173.3-5.3C262.3 287 231.8 261.4 201 236c-11.8-9.8-17.3-9.7-29.2.7-35.6 31.1-70 64-107.4 92.9-25.5 19.7-37.7 41.1-33 73.4 2.5 18 1 18.7 19.3 18.7h398.9c2.5 0 5-.1 7.5 0 7.9.2 11.3-3.7 11.3-11.3-.1-13.4.8-26.7-.4-39.8-.6-6.1-3.8-13.6-8.3-17.4-21.8-18.6-44.5-36.1-66.9-54-12.8-10.1-17.5-10.1-30.5.2-26.2 21-52.5 42.1-78.8 63.1-9.2 7.3-18.4 6.8-24.2-.6-6.1-7.6-4.4-16.1 4.8-23.7 9.5-8.1 19.3-15.8 30.3-24.5z"/><path d="M375.4 110c34.6.1 62.1 28.3 61.8 62.9-.4 33.7-28.7 61.8-62.4 61.6-34.3-.1-62.5-28.4-62.4-62.8s28.2-61.8 63-61.7zm30.4 62.1c0-16.9-13.8-31.1-30.6-31.2-17.3-.2-31.6 14.4-31.4 31.8.4 17.3 13.9 30.4 31.2 30.3 17.5-.2 30.8-13.7 30.8-30.9z"/></svg>