<svg xmlns="http://www.w3.org/2000/svg" viewBox="0 0 90 90"><path d="M2.7.038c-1.5.2-2.7 1.5-2.7 3v54c0 1.7 1.3 3 3 3h59c.8 0 1.6-.4 2.2-1l25-27c1.1-1.2 1.1-2.9 0-4.1l-25-27c-.6-.6-1.4-.9-2.2-.9H2.7zm3.3 6h54.7l22.2 24-22.2 24H6v-48zm17.7 8.9c-1.6.2-2.8 1.7-2.7 3.3.1.7.4 1.3.9 1.8l9.9 9.9-9.9 9.9c-1.2 1.1-1.4 3-.3 4.2s3 1.4 4.2.3l.3-.3 9.9-9.9 9.9 9.9c1.1 1.2 3 1.4 4.2.3 1.2-1.1 1.4-3 .3-4.2l-.3-.3-9.9-9.9 9.9-9.9c1.2-1.2 1.2-3.1.1-4.2-.7-.7-1.6-1-2.5-.9-.7.1-1.3.4-1.8.9l-9.9 9.9-9.9-9.9c-.6-.6-1.5-1-2.4-.9z"/></svg>
