<?xml version="1.0" encoding="utf-8"?>
<!-- Generator: Adobe Illustrator 17.0.0, SVG Export Plug-In . SVG Version: 6.00 Build 0)  -->
<svg version="1.2" baseProfile="tiny" id="Layer_1" xmlns="http://www.w3.org/2000/svg" xmlns:xlink="http://www.w3.org/1999/xlink"
	 x="0px" y="0px" width="186.305px" height="142.827px" viewBox="0 0 186.305 142.827" xml:space="preserve">
<path d="M167.98,15.304c-2.359,0.093-4.695,0.592-6.92,1.442c-5.146,1.973-9.678,5.853-12.426,11.038
	c0.541-5.122,0.832-8.739,0.832-8.739s-0.347-3.699-6.688-7.759c-3.432-2.199-8.623-4.502-16.476-6.38
	C114.326,2.039,96.499,0.098,78.09,0.003c-23.423-0.116-47.783,2.769-62.214,10.57c-9.206,4.976-9.073,9.491-9.073,9.491
	S8.831,37.922,10.34,46.14c1.098,5.972,3.894,18.841,10.775,29.612C8.007,82.882,0,92.345,0,102.701
	c0,21.589,34.801,39.29,78.09,40.095c1.021,0.018,2.044,0.032,3.074,0.032c24.608,0,46.708-5.462,61.614-14.059
	c9.221-5.317,15.689-11.829,18.281-18.993c0.833-2.299,1.268-4.661,1.268-7.074c0-2.409-0.435-4.773-1.268-7.068
	c-2.592-7.164-9.061-13.684-18.281-18.999c-2.029-1.172-4.194-2.286-6.484-3.335c0.756-1.312,1.48-2.646,2.172-3.981
	c1.189-0.164,2.615-0.434,4.312-0.828c0.418-0.101,0.854-0.201,1.303-0.315c5.062-1.266,11.092-3.247,16.978-5.969
	c11.087-5.122,21.682-12.867,24.41-23.411C188.829,25.835,181.861,14.751,167.98,15.304z M136.156,29.014
	c-15.693,8.769-39.199,10.894-58.065,10.63c-2.624-0.038-5.155-0.121-7.568-0.237c-9.642-0.472-37.969-2.478-51.188-10.436
	c-11.099-6.676-6.581-11.915,3.085-17.139c11.136-6.019,33.249-9.266,55.67-9.344c23.177-0.083,46.681,3.21,58.731,10.321
	c3.089,1.826,5.062,3.689,5.957,5.559c0.756,1.572,0.748,3.146,0,4.703C141.807,25.102,139.58,27.097,136.156,29.014z
	 M176.951,41.643c-3.526,6.228-9.371,10.255-15.891,13.187c-5.949,2.68-12.457,4.445-18.281,6.131l-0.016,0.007
	c-0.173,0.048-0.359,0.111-0.549,0.178c0.195-0.494,0.391-0.984,0.564-1.467c0.617-1.642,1.132-3.221,1.526-4.688
	c0.858-3.149,1.62-7.14,2.28-11.309c1.152,0.854,4.287,3.022,3.998,0.935c-0.352-2.547-1.494-12.39,7.207-18.633
	c1.117-0.803,2.213-1.491,3.269-2.084C176.077,15.537,184.831,27.734,176.951,41.643z"/>
</svg>
