<svg xmlns="http://www.w3.org/2000/svg" viewBox="0 0 100 100"><path d="M95.7 34.1c-1.9 0-3.1 1.2-3.1 3.1v43.2c0 5.2-4 9.3-9.3 9.3H15.4c-5.2 0-9.3-4-9.3-9.3V21.8c0-5.2 4-9.3 9.3-9.3h49.4c1.9 0 3.1-1.2 3.1-3.1s-1.2-3.1-3.1-3.1H15.4C6.8 6.3 0 13.1 0 21.8v58.6C0 89 6.8 95.8 15.4 95.8h67.9c8.6 0 15.4-6.8 15.4-15.4V37.2c.1-1.6-1.2-3.1-3-3.1z"/><path d="M99.1 16.2L88 5.1c-1.2-1.2-3.1-1.2-4.3 0L30.6 58.2c-.3.3-.6.6-.6.9v.3l-4.9 16c-.6 1.5.3 3.4 2.2 3.7H29l16-4.9c.9-.3 1.5-.9 1.9-1.9l52.2-51.9c.6-.6.9-1.2.9-2.2s-.3-1.7-.9-2zM32.7 71.8l1.5-5.6 4 4-5.5 1.6zm11.1-5L37 60.3l48.8-48.8 6.8 6.8c0 .1-48.8 48.5-48.8 48.5z"/></svg>