<svg xmlns="http://www.w3.org/2000/svg" viewBox="0 0 100 100"><path d="M8.6 44.3c1.1-4.7 2.6-9.3 4.8-13.7 1.1-2.1 2.2-4.2 3.4-6.2.6-1 1.2-2 1.9-2.9.4-.5.8-1.1 1.2-1.6.6-.5.6-.6.1-.4-.8-.2-1.5-.4-2.2-.6-.8-.5-.5-2.5-.9-1.1-.1.4.1 1.3.1 1.8.1 1.2.1 2.3.2 3.5.1 2.5.1 5.1.2 7.6 0 5.1-.1 10.1 0 15.2.2 8.4.9 16.9 3.4 25 1.2 3.9 2.8 7.6 4.9 11.1 2 3.4 4.8 7.6 9.2 7.6 4.3 0 7-3.9 7.5-7.8.5-4.5.1-9.1.4-13.6.3-5.3.9-10.7 2.1-15.9.5-2.3 1.2-4.6 2-6.9.4-1 .8-2 1.4-2.9l.7-1.2c.6-1 1.5-1.4-.3-.6h-2.3c.2.1.4.1.5.2-.9-.6-1.8-1.4-2.6-2 .9 1.2 1.4 3.8 1.9 5.5.7 2 1.4 4.1 2.1 6.1 1.3 3.8 2.5 7.9 4.3 11.4 3.5 6.7 11.6 7.5 15.9 1.1 1.9-2.8 2.9-6.2 3.7-9.5.2-.7.6-1.8.6-2.5.4-.9-.2-1.1-2-.4l.6.9c.5 1.7 2.6 4.1 3.6 5.5 2.1 2.9 4.9 4.8 8.5 3.5 1.8-.6 3.3-1.9 4.8-3.1.7-.6 1.4-1.2 2.1-1.9.4-.4 2.2-1.8.6-1.2h-2.3c-1.4-.5.8.7 1.1.9.7.4 1.5.8 2.2.9 1.8.5 3.5.4 5.3.1 2.3-.4 3.6-3.3 3.1-5.4-.7-2.5-3.1-3.5-5.4-3.1-.6.1-1.2-.6-1.6-.9-1.1-.6-2.2-1.2-3.5-1.2-2.6 0-4.1 1.9-5.6 3.6-.7.8-1.5 1.5-2.3 2.1-.8.6-1.7.5-.2.9 1.8.5.5.1.3-.7-.4-1.1-1.5-2.2-2.1-3.2-.8-1.2-1.5-2.3-2.3-3.4-3.1-3.9-8.7-3.8-11.7.2-2.6 3.5-2.3 8.5-4.4 12.3-.1.2-.7 1.2-.8 1.2.4-.1.2-.1 0-.5-1.1-2-1.8-4.2-2.6-6.3-1.8-5.1-3.3-10.3-5.2-15.4-1.9-5.2-7.2-5.6-10.4-1.2-2.7 3.8-4.3 8.2-5.5 12.7-1.5 5.8-2.3 11.7-2.8 17.6-.2 2.9-.4 5.9-.4 8.9v4.5c0 .5-.1 1.1 0 1.5.2 1.2-.1.7 0 .6h2.3c-1.3-.2-2.5-3.1-3.2-4.3-1.1-1.9-2-3.9-2.7-5.9-1.5-4.2-2.5-8.6-3.1-12.9-1.4-10.5-.6-21.2-.8-31.8-.1-4.1.7-11-2.8-13.9-4.2-3.7-8.6.3-11.1 3.8C6.3 23.6 2.4 32.6.1 42c-1.3 5.5 7.2 7.8 8.5 2.3z"/></svg>
