<svg id="Layer_1" xmlns="http://www.w3.org/2000/svg" viewBox="0 0 500 500"><style>.st0,.st1{fill:none;stroke:#000;stroke-width:3;stroke-miterlimit:10}.st1{fill:#fff;stroke-width:5}</style><path class="st0" d="M460.3 72.9H21.2C9.6 72.9 0 82.5 0 94.2v290.4c0 11.7 9.6 21.2 21.2 21.2h439.1c11.7 0 21.2-9.6 21.2-21.2V94.2c.1-11.7-9.5-21.3-21.2-21.3zm8.4 298.7c0 11.7-9.6 21.2-21.2 21.2H34c-11.7 0-21.2-9.6-21.2-21.2V107.1c0-11.7 9.6-21.2 21.2-21.2h413.4c11.7 0 21.2 9.6 21.2 21.2v264.5z"/><path d="M114.9 242.9c-16.3 2.3-25-5.1-20.7-18.4 5.1-16.1 10.4-32.4 17.9-47.6 5.8-12 14.3-23.2 22.8-33.6 4.8-6 12.7-12.7 20.4-9 7.1 3.4 14.3 9.6 14.3 20.4-.4 28.5-.7 57 .4 85.5.7 19.5 2.7 39 6.2 58.1 2.1 11.9 2.8 24.3 15.6 27.3 2.5.5 4.6-32.6 6.9-51.3 1.8-13.1 2.5-26.7 6.9-39 4.8-12.7 8.1-29.2 22.7-34.7 20.2-7.6 30.8 36.3 33.6 44.8 3 9 5.1 18.4 7.6 27.8 9 1.4 10.3-3.9 11.2-10.8 1.6-12.4 5-23.9 17.4-31 9.2-5.3 16.3-5.1 23.2 3.9 5.1 6.6 5.7 19.8 14.5 20.9 7.4.9 11-9.4 16.3-14 13.5-11.9 30.8.5 35.6 8.3 4.2 6.9 5.1 14-1.6 17-6.6 3-12.7 9.7-20.2 1.2-.7-.9-5.7 1.2-8.3 2.7-7.1 4.2-9 11.2-20.9 13.3-7.4 1.4-11.2-3.5-15.6-7.4-5-4.2-8-18.1-13.8-14.3-4.1 2.7-6 14-8.5 20.7-5.5 14.9-15.4 21.6-31 18.6-6.7-1.2-13.8-4.2-16.8-12.7-5.3-14.9-8.3-47.3-21.1-45.5-6.4 6.2-7.6 45-8.3 53.1-1.6 19.8-2.7 39.7-6 59.3-1.1 5.8-7.8 12.6-13.6 15.4-8 4.1-15-1.4-20.9-7.4-8.3-8.7-13.3-19.1-18.1-30.1-6-13.5-8.1-27.4-12-41.3-8.9-32.9-2.8-111.4-5-114.7-3.4-5.3-9.2 6-10.4 9.4-5 12.6-8.7 25.5-13.1 38.2-2.3 4.9-4.9 10.4-7.6 16.9z"/><path class="st1" d="M369.3 254.1c2.8 1.8 5 3.5 7.4 4.8 4.8 1.9 9.6 3.9 14.5 5.3 8.1 2.5 12.9 9 12.2 17.4-.7 7.4-6.7 13.3-14.7 14.2-6.6.7-12.6-3-15.6-9.6-3.2-7.3-3.9-14.9-4.1-22.7.2-3.1.3-6.1.3-9.4zm30.8 51.7c1.6-.9 9.6-6.6 11.2-7.6.4.5 58.6 79.9 87.3 118.8.5.7 1.4 1.6 1.4 2.5 0 1.1-9.7 8-10.8 7.6-.5-.2-.9-.9-1.2-1.4-28.9-39.7-87.5-119.6-87.9-119.9z"/></svg>
