<svg xmlns="http://www.w3.org/2000/svg" viewBox="0 0 100 100"><path d="M56.8 0c3.7 0 6.8 3.1 6.8 6.8v4.7c1.3.5 2.7 1 3.9 1.6l3.3-3.3c2.6-2.6 7-2.6 9.6 0l9.6 9.6c2.6 2.6 2.6 7 0 9.7l-3.3 3.3c.6 1.3 1.2 2.6 1.6 3.9H93c3.7 0 6.8 3.1 6.8 6.8v13.6c0 3.7-3.1 6.8-6.8 6.8h-4.8c-.5 1.3-1 2.6-1.6 3.9l3.3 3.3c2.6 2.6 2.6 7 0 9.7L80.3 90c-2.6 2.6-7 2.6-9.6 0l-3.3-3.3c-1.3.6-2.6 1.1-3.9 1.6v4.8c0 3.7-3.1 6.8-6.8 6.8H43.2c-3.7 0-6.8-3.1-6.8-6.8v-4.8c-1.3-.5-2.6-1-3.9-1.6L29.2 90c-2.6 2.6-7 2.6-9.6 0l-9.7-9.6c-2.6-2.6-2.6-7 0-9.7l3.4-3.4c-.6-1.3-1.2-2.6-1.6-3.9H6.8c-3.7 0-6.8-3.1-6.8-6.8V43.2c0-3.7 3.1-6.8 6.8-6.8h4.8c.5-1.3 1-2.6 1.6-3.9l-3.4-3.4c-2.6-2.6-2.6-7 0-9.7l9.7-9.6c2.6-2.6 7-2.6 9.6 0l3.3 3.3c1.3-.6 2.6-1.1 3.9-1.6V6.8c0-3.7 3.1-6.8 6.8-6.8h13.7zm0 4.5H43.2c-1.3 0-2.3 1-2.3 2.3V13c0 1-.7 1.9-1.6 2.2-2.2.7-4.3 1.5-6.3 2.6-.8.5-2 .3-2.7-.4L25.9 13c-.9-.9-2.3-.9-3.2 0L13 22.7c-.9.9-.9 2.3 0 3.2l4.4 4.4c.7.7.9 1.8.4 2.7-1.1 2-2 4.1-2.7 6.3-.3.9-1.2 1.6-2.2 1.6H6.8c-1.3 0-2.3 1-2.3 2.3v13.6c0 1.3 1 2.3 2.3 2.3H13c1 0 1.9.7 2.2 1.6.7 2.2 1.6 4.3 2.7 6.3.4.9.3 2-.4 2.7L13 74.1c-.9.9-.9 2.3 0 3.2l9.7 9.6c.9.9 2.3.9 3.2 0l4.4-4.4c.7-.7 1.8-.8 2.7-.4 2 1.1 4.1 1.9 6.3 2.6.9.3 1.6 1.2 1.6 2.2v6.3c0 1.3 1 2.3 2.3 2.3h13.6c1.3 0 2.3-1 2.3-2.3V87c0-1 .7-1.9 1.6-2.2 2.2-.7 4.4-1.5 6.4-2.6.8-.5 2-.3 2.7.4l4.4 4.4c.9.9 2.3.9 3.2 0l9.6-9.6c.9-.9.9-2.3 0-3.2l-4.4-4.4c-.7-.7-.8-1.8-.4-2.7 1.1-2 1.9-4.1 2.6-6.4.3-.9 1.2-1.6 2.2-1.6h6.2c1.3 0 2.3-1 2.3-2.3V43.2c0-1.3-1-2.3-2.3-2.3H87c-1 0-1.9-.7-2.2-1.6-.7-2.2-1.5-4.3-2.6-6.3-.5-.9-.3-2 .4-2.7l4.4-4.4c.9-.9.9-2.3 0-3.2L77.3 13c-.9-.9-2.3-.9-3.2 0l-4.4 4.4c-.7.7-1.8.8-2.7.4-2-1.1-4.1-1.9-6.4-2.6-.9-.3-1.6-1.2-1.6-2.2V6.8c.1-1.3-.9-2.3-2.2-2.3zM50 27.3c12.5 0 22.7 10.2 22.7 22.7S62.5 72.7 50 72.7 27.3 62.5 27.3 50 37.5 27.3 50 27.3zm0 4.5c-10.1 0-18.2 8.1-18.2 18.2S39.9 68.2 50 68.2 68.2 60.1 68.2 50 60.1 31.8 50 31.8z"/></svg>