<svg xmlns="http://www.w3.org/2000/svg" viewBox="0 0 500 500"><path d="M81.5 20H18.9c-4.7.6-8.1 3-8.1 11.5v41.3c0 7.4 2.3 10.6 8.1 11.5h62.6c4.5-.7 7.7-3.2 7.7-11.5V31.5c0-7.3-2.2-10.6-7.7-11.5zM81.5 218.5l-62.6-.1c-4.7.6-8.1 3-8.1 11.5v41.3c0 7.4 2.3 10.6 8.1 11.5h62.6c4.5-.7 7.7-3.2 7.7-11.5v-41.3c0-7.3-2.2-10.5-7.7-11.4zM81.5 415.8l-62.6-.1c-4.7.6-8.1 3-8.1 11.5v41.3c0 7.4 2.3 10.6 8.1 11.5h62.6c4.5-.7 7.7-3.2 7.7-11.5v-41.3c0-7.2-2.2-10.5-7.7-11.4zM280.3 20h-62.6c-4.7.6-8.1 3-8.1 11.5v41.3c0 7.4 2.3 10.6 8.1 11.5h62.6c4.5-.7 7.7-3.2 7.7-11.5V31.5c0-7.3-2.2-10.6-7.7-11.5zM280.3 218.5l-62.6-.1c-4.7.6-8.1 3-8.1 11.5v41.3c0 7.4 2.3 10.6 8.1 11.5h62.6c4.5-.7 7.7-3.2 7.7-11.5v-41.3c0-7.3-2.2-10.5-7.7-11.4zM280.3 415.8l-62.6-.1c-4.7.6-8.1 3-8.1 11.5v41.3c0 7.4 2.3 10.6 8.1 11.5h62.6c4.5-.7 7.7-3.2 7.7-11.5v-41.3c0-7.2-2.2-10.5-7.7-11.4zM481.5 20h-62.6c-4.7.6-8.1 3-8.1 11.5v41.3c0 7.4 2.3 10.6 8.1 11.5h62.6c4.5-.7 7.7-3.2 7.7-11.5V31.5c0-7.3-2.2-10.6-7.7-11.5zM481.5 218.5l-62.6-.1c-4.7.6-8.1 3-8.1 11.5v41.3c0 7.4 2.3 10.6 8.1 11.5h62.6c4.5-.7 7.7-3.2 7.7-11.5v-41.3c0-7.3-2.2-10.5-7.7-11.4zM481.5 415.8l-62.6-.1c-4.7.6-8.1 3-8.1 11.5v41.3c0 7.4 2.3 10.6 8.1 11.5h62.6c4.5-.7 7.7-3.2 7.7-11.5v-41.3c0-7.2-2.2-10.5-7.7-11.4z"/></svg>
