<svg xmlns="http://www.w3.org/2000/svg" viewBox="0 0 500 500"><path d="M482.4 165.8L348.5 23.9c-6.1-6.5-14.6-10.1-23.5-10.1H120.3c-43.9 0-69.2 17.5-82.8 32.2-27.6 30-27.4 69-26.9 78.4v118.3c0 17.8 14.4 32.2 32.2 32.2s32.3-14.4 32.3-32.2V123.4c0-.9 0-1.8-.1-2.7 0-.2-.7-19.5 9.9-31 7-7.6 18.9-11.5 35.3-11.5h172.5v77.4c0 2.3.4 4.5 1.2 6.7 5.9 16.1 25.9 43.3 63.3 43.3 18.4 0 47.2.5 69.3.9v187.7c0 .1-.9 10.2-8.1 17.3-8.9 8.7-24.7 10.3-36.5 10.1-80.6-1.5-122.6-.1-124.3 0-17.8.6-31.7 15.6-31.1 33.4.6 17.8 15.5 31.6 33.4 31.1.4 0 42.2-1.4 120.8 0h3.3c33.5 0 60.2-9.6 79.5-28.6 26.6-26.2 27.4-59.6 27.4-63.3V187.9c.3-8.2-2.9-16.1-8.5-22.1zm-150.9-14.4V99.9l63.6 67.5c-13.9-.2-27.5-.4-37.8-.4-15.4-.1-23-10.6-25.8-15.6z"/><path d="M192.9 345.9h-43.5v-43.5c0-17.8-14.4-32.2-32.2-32.2S85 284.6 85 302.4v43.5H41.3c-17.8 0-32.2 14.4-32.2 32.2 0 17.8 14.4 32.2 32.2 32.2h43.5V454c0 17.8 14.4 32.2 32.2 32.2s32.2-14.4 32.2-32.2v-43.5h43.5c17.8 0 32.2-14.4 32.2-32.2.2-17.9-14.2-32.4-32-32.4z"/></svg>