<svg xmlns="http://www.w3.org/2000/svg" viewBox="0 0 500 500"><path d="M387.1 113.3c-19.3-37.2-50.1-68.1-89.4-87.9-3.1-1.5-6.2-3-9.4-4.4C262.6 9.7 235.2 4 207 4 95.1 4.1 4.1 95.1 4.1 207c0 28.8 5.9 56.5 17.6 82.6 19 42.6 51.7 76.4 91.5 97.2C148 453.5 217.3 496 293.2 496c111.9 0 202.9-91 202.9-202.9-.1-76-41.8-144.6-109-179.8zM130.6 365.5c-6-13.4-10.2-27.4-12.7-41.6L176 382c-15.4-2.7-30.4-7.4-44.3-13.9-.4-.8-.8-1.7-1.1-2.6zM115.2 290c.2-13.1 1.9-26 4.8-38.2L248.3 380c-12.3 2.9-25.1 4.6-38.2 4.8 0 .1-94.9-94.8-94.9-94.8zm12.4-62.1c4.1-10.3 9.1-20.2 14.9-29.4l159 159c-9.2 5.9-19.1 10.8-29.5 14.9L127.6 227.9zm236.9-97.8c1.3.5 2.6 1.2 4 1.8 6 12.9 10.4 26.6 13.2 40.9l-54.2-54.2c12.6 2.3 24.9 6.2 37 11.5zm-208.8 50.2c6.9-8.4 14.6-16.1 22.9-23.2L343 321.5c-7 8.3-14.7 16-23.2 23L155.7 180.3zm40.9-36.5c9.8-6.3 20.3-11.8 31.2-16.1l144.5 144.6c-4.4 10.9-9.8 21.3-16.1 31.2L196.6 143.8zm55-23.7c13.2-3.1 26.9-4.9 41.1-4.9l90.5 90.5 1.6-1.6v2.7c0 14.3-1.7 28.2-4.9 41.5L251.6 120.1zM293.1 471c-55.6 0-107.2-26-140.4-68.7 17.4 4.8 35.6 7.4 54.3 7.4 111.9 0 202.9-91 202.9-202.9 0-18.7-2.6-36.8-7.3-54.2 42.9 33.4 68.6 84.5 68.6 140.4-.2 98.2-80 178-178.1 178z"/></svg>