<svg xmlns="http://www.w3.org/2000/svg" viewBox="0 0 500 500"><path d="M496 99.5c-.6 26.8-7.3 42.7-20.4 55.7-97.2 97.2-194.3 194.4-291.6 291.5-4.2 4.2-10.1 7.2-15.8 8.8-46.5 13.6-93 27-139.7 39.8-6.6 1.8-17.3 1.6-20.6-2.3-4-4.7-4.7-15-2.8-21.8 12.5-46.3 25.7-92.4 39.4-138.3 2-6.9 6.3-13.9 11.5-19.1 94.9-95.4 190.1-190.6 285.3-285.6 32.6-32.8 72.8-32.5 105.7.1 9.8 9.7 19.7 19.4 29.2 29.3 13.5 13.9 19.9 30.8 19.8 41.9zM39.8 460.2c38.5-11.1 74.1-21 109.4-31.7 7.7-2.4 15.8-6.7 21.5-12.4 72.8-72.3 145.4-145 218-217.6 3.3-3.3 6.3-6.8 8.2-8.8-29.2-29.2-57.6-57.6-86.5-86.6-.4.3-1.9 1.3-3.3 2.5L80.3 332.4c-2.7 2.7-5.4 5.7-6.4 9.1-11.2 38.8-22.2 77.4-34.1 118.7zm383-295.2c10.5-10.6 21.3-21.2 31.6-32.4 14.6-16 14.9-36.7.3-52.8-11.2-12.2-23-24.1-35.3-35.2-14.8-13.3-35-13.8-49.5-1.3-12.5 10.7-23.7 22.8-35 33.6 29.6 30 58.1 58.4 87.9 88.1z"/></svg>