<svg xmlns="http://www.w3.org/2000/svg" viewBox="0 0 500 500"><path d="M467.1 74.5c-23.2-22.3-52.4-23.2-59.1-23.3H97.8c-39 0-60.7 15.9-72 29.2-21.3 24.9-20.3 56-19.2 66.5v216.4c0 31.1 13.2 50.3 24.3 60.9 23.7 22.7 56.1 24.6 65.9 24.6h311.6c61.1 0 84.6-50.6 85.4-84.6V145c-.1-37.1-14.6-58.8-26.7-70.5zM76.2 123.2c4.5-5.1 15.5-5.8 21.6-5.8h310.4l-.2.1 1.1-.1c16.5.5 18.4 16 18.4 27.6v151.9l-57.9-50c-7.5-6.5-18.6-6.4-26.1.1l-54.8 47.9-86.5-80.6c-6.9-6.5-17.5-7.1-25.1-1.6L72.7 287.9l-.3-147.7c-.5-3.6-.1-12.6 3.8-17zm332 259.4H96.4c-2.7 0-14.5-1.1-19.8-6.2-1-.9-3.9-3.7-3.9-13.1v-26.4l114.5-82.5 71.6 66.7-14.5 12.7c-8.2 7.2-9.1 19.8-1.9 28 3.9 4.5 9.4 6.8 14.9 6.8 4.6 0 9.3-1.6 13.1-4.9l86.3-75.5 66.3 57.4c1.4 1.2 2.9 2.1 4.4 2.8v14.5c-.2 7.4-3.1 19.7-19.2 19.7z"/><path d="M359.7 234.1c29 0 52.7-23.6 52.7-52.7s-23.6-52.7-52.7-52.7-52.7 23.6-52.7 52.7 23.7 52.7 52.7 52.7zm0-72.2c10.8 0 19.6 8.8 19.6 19.6s-8.8 19.6-19.6 19.6-19.6-8.8-19.6-19.6 8.8-19.6 19.6-19.6z"/></svg>