<svg id="Layer_1" xmlns="http://www.w3.org/2000/svg" viewBox="0 0 500 500"><style>.st0{opacity:.5}.st1{opacity:.75}</style><path d="M86.3 333.1c-40.1 0-72.8-32.7-72.8-72.8s32.7-72.8 72.8-72.8 72.8 32.7 72.8 72.8-32.7 72.8-72.8 72.8z" class="st0"/><path d="M189.3 364.3C126.3 364.3 75 313 75 250s51.3-114.3 114.3-114.3S303.6 187 303.6 250s-51.3 114.3-114.3 114.3z" class="st1"/><path d="M342 399.4c-79.7 0-144.5-67-144.5-149.4S262.4 100.6 342 100.6 486.5 167.7 486.5 250 421.7 399.4 342 399.4z"/></svg>