<svg xmlns="http://www.w3.org/2000/svg" viewBox="0 0 500 500"><path d="M149.7 189.4c8.9 0 17.8-3.7 24.2-10.9l38.9-43.9v246.9c0 17.9 14.5 32.3 32.3 32.3s32.3-14.5 32.3-32.3V135.7l41.2 43.6c12.3 13 32.7 13.6 45.7 1.3s13.6-32.7 1.3-45.7L242.1 4 125.5 135.6c-11.8 13.4-10.6 33.8 2.8 45.7 6.1 5.4 13.7 8.1 21.4 8.1z"/><path d="M452.1 300.7c-17.9 0-32.3 14.5-32.3 32.3v70c-.5 5.6-4.4 25.1-32.7 26.8-57.3 3.4-216.9 3.4-274.2 0-25.8-1.5-31.6-17.6-32.7-27V333c0-17.9-14.5-32.3-32.3-32.3S15.5 315.1 15.5 333v71.2l.1 1.9c1.7 28.7 23.4 84 93.4 88.2 20.8 1.2 43.1 1.7 63.5 1.7h154.9c20.5 0 42.7-.4 63.5-1.7 70-4.2 91.7-59.6 93.4-88.2l.1-73.1c.1-17.9-14.4-32.3-32.3-32.3z"/></svg>