<?xml version="1.0" encoding="utf-8"?>
<!-- Generator: Adobe Illustrator 20.1.0, SVG Export Plug-In . SVG Version: 6.00 Build 0)  -->
<svg version="1.1" id="Layer_1" xmlns="http://www.w3.org/2000/svg" xmlns:xlink="http://www.w3.org/1999/xlink" x="0px" y="0px"
	 viewBox="0 0 500 500" style="enable-background:new 0 0 500 500;" xml:space="preserve">
<style type="text/css">
	.svg-names0{fill:#8EDAF7;}
	.svg-names1{fill:#FDA227;}
	.svg-names2{fill:#F2D359;}
	.svg-names3{fill:#231F20;}
</style>
<g>
	<polygon class="svg-names0" points="286.4,132.8 93.7,132.8 93.7,346.7 	"/>
	<polygon class="svg-names0" points="167.3,368 405,368 405,132.8 379.2,132.8 	"/>
</g>
<polygon class="svg-names1" points="201.7,329.9 363.5,329.9 278.3,244.7 "/>
<circle class="svg-names2" cx="161.3" cy="197.5" r="35"/>
<path class="svg-names3" d="M161.3,241.1c-24,0-43.5-19.5-43.5-43.5s19.5-43.5,43.5-43.5s43.5,19.5,43.5,43.5S185.3,241.1,161.3,241.1z
	 M161.3,171c-14.6,0-26.5,11.9-26.5,26.5s11.9,26.5,26.5,26.5s26.5-11.9,26.5-26.5S175.9,171,161.3,171z"/>
<g>
	<polygon class="svg-names3" points="200.4,338.4 267,338.4 228.6,300 217.2,312.6 226,321.4 216.2,321.4 	"/>
</g>
<path d="M250,9.9C117.6,9.9,9.9,117.6,9.9,250S117.6,490.1,250,490.1S490.1,382.4,490.1,250S382.4,9.9,250,9.9z M250,28.3
	c46.8,0,90.2,14.6,126,39.4L81.8,394.3C48.4,355.5,28.3,305.1,28.3,250C28.3,127.7,127.7,28.3,250,28.3z M250,471.7
	c-58.9,0-112.6-23.1-152.3-60.7L394.3,81.7c47.4,40.7,77.5,101,77.5,168.3C471.7,372.3,372.3,471.7,250,471.7L250,471.7z"/>
<g>
	<polygon points="102.2,337.3 102.2,141.3 278.7,141.3 294.1,124.3 85.2,124.3 85.2,356.2 	"/>
	<polygon points="371.5,141.3 396.5,141.3 396.5,359.5 175,359.5 159.7,376.5 413.5,376.5 413.5,124.3 386.8,124.3 	"/>
</g>
<polygon class="svg-names3" points="272.7,251.1 343,321.4 209.3,321.4 194,338.4 384.1,338.4 284,238.4 "/>
</svg>
