<?xml version="1.0" encoding="utf-8"?>
<!-- Generator: Adobe Illustrator 20.1.0, SVG Export Plug-In . SVG Version: 6.00 Build 0)  -->
<svg version="1.1" id="Layer_1" xmlns="http://www.w3.org/2000/svg" xmlns:xlink="http://www.w3.org/1999/xlink" x="0px" y="0px"
	 viewBox="0 0 500 500" style="enable-background:new 0 0 500 500;" xml:space="preserve">
<style type="text/css">
	.svg-distort0{fill:#F94D20;}
</style>
<g>
	<path class="svg-distort0" d="M312.4,103.6c-20.1-9.3-42.5-14.5-66.1-14.5c-87,0-157.6,70.6-157.6,157.6c0,29.5,8.1,57.1,22.2,80.6
		L312.4,103.6z"/>
	<path class="svg-distort0" d="M158.7,377.7c25.1,16.8,55.2,26.6,87.6,26.6c87,0,157.6-70.6,157.6-157.6c0-38.3-13.7-73.4-36.4-100.7
		L158.7,377.7z"/>
</g>
<path d="M250,8.6C116.9,8.6,8.6,116.9,8.6,250S116.9,491.4,250,491.4S491.4,383.1,491.4,250S383.1,8.6,250,8.6z M250,27.1
	c47,0,90.7,14.6,126.7,39.6L80.9,395.1c-33.5-39-53.8-89.7-53.8-145.1C27.1,127.1,127.1,27.1,250,27.1z M250,472.9
	c-59.2,0-113.1-23.2-153.1-61.1L395,80.9c47.7,40.9,77.9,101.6,77.9,169.1C472.9,372.9,372.9,472.9,250,472.9z"/>
<g>
	<path d="M361.2,153c20.9,25.6,33.4,58.2,33.4,93.7c0,81.8-66.5,148.4-148.3,148.4c-30,0-57.9-9-81.3-24.3l-12.5,13.8
		c26.7,18.2,59,28.9,93.8,28.9c92,0,166.8-74.8,166.8-166.8c0-41-14.8-78.5-39.4-107.6L361.2,153z"/>
	<path d="M117.4,320.1c-12.4-21.7-19.5-46.7-19.5-73.4c0-81.8,66.6-148.4,148.4-148.4c21.2,0,41.4,4.5,59.6,12.5l12.9-14.3
		c-21.9-10.6-46.5-16.6-72.5-16.6c-92,0-166.8,74.8-166.8,166.8c0,32.2,9.2,62.2,25,87.7L117.4,320.1z"/>
</g>
<path d="M176.1,249.3c0,1.7,0.3,3.3,0.8,4.8l29.2-32.4v-13.7h12.4l8-8.9v-5h-70.8v13.9h20.4V249.3z"/>
<path d="M254.9,286.2c-5.6,0-10.6,0.6-15.2,1.6L200.8,331c1.2,4.1,4.6,7.4,9.1,8.2c6.3,1.1,12.3-3.1,13.4-9.4
	c0.1-0.9,3.9-20.5,31.6-20.5c26.6,0,31.2,18.5,31.6,20.5c1,5.6,5.9,9.5,11.4,9.5c0.7,0,1.3,0,2-0.1c6.3-1.1,10.5-7.1,9.4-13.4
	C306.9,312.1,292.4,286.2,254.9,286.2z"/>
<path d="M290.8,231.1v18.2c0,8.3,6.7,15,15,15s15-6.7,15-15v-41.4h20.4V194h-17L290.8,231.1z"/>
</svg>
