<?xml version="1.0" encoding="utf-8"?>
<!-- Generator: Adobe Illustrator 20.1.0, SVG Export Plug-In . SVG Version: 6.00 Build 0)  -->
<svg version="1.1" id="Layer_1" xmlns="http://www.w3.org/2000/svg" xmlns:xlink="http://www.w3.org/1999/xlink" x="0px" y="0px"
	 viewBox="0 0 500 500" style="enable-background:new 0 0 500 500;" xml:space="preserve">
<style type="text/css">
	.svg-profane0{fill:#C4D42C;}
</style>
<path d="M250,9.9C117.6,9.9,9.9,117.6,9.9,250S117.6,490.1,250,490.1S490.1,382.4,490.1,250S382.4,9.9,250,9.9z M250,28.3
	c46.8,0,90.2,14.6,126,39.4L81.8,394.3C48.4,355.5,28.3,305.1,28.3,250C28.3,127.7,127.7,28.3,250,28.3z M250,471.7
	c-58.9,0-112.6-23.1-152.3-60.7L394.3,81.7c47.4,40.7,77.5,101,77.5,168.3C471.7,372.3,372.3,471.7,250,471.7L250,471.7z"/>
<g>
	<path d="M394.1,297.7c-0.4-0.1-44.5-10.7-79.3-18.8c-31-7.2-32-7.2-33.7-7.2l0.3,20.7c-0.2,0-0.6,0-1.2-0.1
		c0.9,0.1,5.7,1.1,29.9,6.7c0.9,0.2,1.8,0.4,2.8,0.6c-0.9,7.4-1.8,19.2-2.1,36.6c-0.1,3.4-0.1,7.1-0.1,10.9
		c0,39.8,39.2,52.7,59.9,53.9l8.6,0.5L404.1,300L394.1,297.7z M379.2,315.4l-5.9,24l-41.6-10.8c0.3-10.6,0.9-18.6,1.5-24
		C351.2,308.8,368.7,312.9,379.2,315.4z M331.6,349.9l36.8,9.6l-4.9,19.8C352.1,376.8,333.2,369.7,331.6,349.9z"/>
</g>
<g>
	<path class="svg-profane0" d="M310,106.6c-18.4-9-41.4-14.6-70.4-14.4c-53.1,0.4-103.4,28.1-128.4,68.9c-30,49.1-19.8,116.6,11.9,152.9
		L310,106.6z"/>
	<path class="svg-profane0" d="M188.6,344.4c63.5,10.7,101.8-8,101.8-19.4c0-13-12.6-81,27.6-88.1c43.7-7.6,63.6-17,63.6-17
		s-1.5-33.6-21.1-66.4L188.6,344.4z"/>
</g>
<g>
	<path d="M115.4,322.6l15.5-17.2c-6.9-8.1-12.7-18.2-17.2-29.8c-14.1-36.4-11.3-78,7.4-108.5c23.3-38.1,69.8-63,118.6-63.4h1.7
		c24.6,0,44.4,4.6,60.5,11.9l16-17.8c-19.7-10.3-44.7-17.1-76.5-17.1h-1.9c-56.6,0.4-110.7,29.7-138.1,74.4
		c-22.3,36.5-25.8,85.9-9.2,128.8C98,299,106,312.1,115.4,322.6z"/>
	<path d="M371.7,149.9c-1-1.7-2.1-3.5-3.2-5.3l-16,17.7c11.2,19.7,15.3,39.3,16.8,50c-9.1,3.3-26.6,8.6-53.3,13.3
		c-44.8,7.8-39.6,68.8-37.6,91.8c0.2,2.2,0.4,4.3,0.5,5.9c-5.3,5.7-33.6,17.3-81.1,10.8l-18.2,20.2c16.9,3.4,32,4.8,45.4,4.8
		c33.7,0,56.2-8.7,66.3-16.4c8.8-6.6,10.6-13.3,10.6-17.8c0-2.3-0.2-5.3-0.6-9.5c-2.5-29.3-2.7-63.5,18.7-67.2
		c44.7-7.8,65.6-17.6,66.5-18l6.9-3.3l-0.3-7.6C393,218,391.3,184,371.7,149.9z"/>
</g>
</svg>
