<svg xmlns="http://www.w3.org/2000/svg" viewBox="0 0 500 500"><path d="M201.4 79.4c10.7.5 18.9-6.5 19.7-17.5.4-4.4 1.6-8 4.3-11.4 4.2-5.2 9.9-7.3 16-9.3 17.6-5.5 34.5 4.7 37.1 22.6 1.5 9.7 10.1 16.3 20.2 15.6 8.8-.6 15.5-8.3 16.1-17.9.5-8.7-1.8-16.9-5.7-24.1-12.7-23.3-34.2-32.3-58-35.2-12.3.5-22.5 4.2-32.6 8.3-18.9 7.8-33.8 29.8-33.7 49.7.1 10.9 7 18.8 16.6 19.2zM197 401.8c-.4-5-.8-10.1-1.1-15.1-3.6-49.7-7.4-99.4-11.1-149-.8-10.7-1.1-21.4-3.4-31.8-1.5-7-8-12.5-15.1-12.8-13.2-.9-21.3 8.4-20 22.5 2.1 26.3 4.2 52.6 6 78.9 1.9 26.5 3.4 53.1 5.5 79.6 1 12.7 2.4 25.4 3 38.2.4 7.4 6.3 14.6 12.7 16.2 8.2 2.1 15.3-.8 20.4-7.3 4.7-6.2 2.7-12.8 3.1-19.4zM249.7 192.9c-7.9 0-14.1 4.3-16.5 11.1-1.4 4-1.6 8.2-1.6 12.3v189.3c0 3.5.1 7 1.1 10.6 2.4 7.8 8.6 12.7 16.6 12.8 12.2.1 18.7-7.5 18.7-22.3V215.5c0-4-.5-7.9-1.8-11.7-2.2-6.7-8.6-10.9-16.5-10.9zM342 193.7c-7.4-2.6-15.6-.3-21 6-3.1 3.6-3.4 8-4 12.3-2.6 17.2-2.3 34.7-3.6 51.9-3.6 45.5-7 90.9-10.6 136.5h-.4c0 3.5-.1 7.2 0 10.7.3 10.3 7.8 17.7 18 17.7 10.4 0 18-7.2 18.5-18.1 1-24.3 3.5-48.4 5.3-72.7 1.6-22.5 2.8-45.1 4.9-67.7 1.8-19.4 3.1-38.9 4.3-58.2.5-8-4.8-15.9-11.4-18.4z"/><path d="M456 79.3c-4-14.6-12.1-26.9-24.3-36.3-21.8-17-47.2-25.5-73.3-32.3-5.7-1.5-11.4-3-17.2-3.5-8.9-.8-17.4 6.3-18.5 14.5-1.4 9.8 3.9 19.2 12.5 21.1 14.8 3.4 29.7 7 43.9 12.6 12.7 5 25 10.7 34.6 20.8 7 7.4 6.9 13.3 0 20.9-4 4.4-8.7 7.9-13.8 10.8-22.6 12.8-47.7 19.1-72.9 23.9-25.5 4.9-51.6 6-82.5 6-40.6.1-85.4-4.9-128.2-21.8-10.9-4.3-21.4-9.6-29.8-18-7.9-7.9-8-14.2-.3-22.1 7-7.3 16-12.1 25-16.3 15.7-7.5 32.7-11.4 49.4-16 9.6-2.6 14.7-12.3 12.1-22.9-2.1-8.3-12.6-14.1-21.4-12.1-19.4 4.4-38.5 9.8-56.5 18.4-16.5 7.8-31.6 17.4-42.3 32.6-10.5 14.9-13.6 31.2-3.7 47.7 6.3 10.6 10.8 21.1 10.4 33.6-.1 2.6 33 271.4 35.6 299.4 1.3 13 7 22 17.1 29.1 13.5 9.3 28.8 13.8 44.5 17.6 27.5 6.7 55.7 8.8 83.9 10.6 51.2 0 124.3-14.7 141.6-24 10.6-5.7 20.1-13.2 21.5-26 1.5-14.8 33.5-277.6 36-305.6 1.1-12.7 4.2-23.9 10.8-34.7 5.5-8.6 8.5-18.4 5.8-28zm-54.8 75.2c-2.3 20.9-4.5 41.6-6.9 62.5-2.1 19-4.4 37.9-6.8 56.7-3.5 29.1-7 58.2-10.6 87.3-2 16.5-4 32.8-5.4 49.3-.8 8.2-2.1 16.2-3.4 24.3-1.1 7.3-7.4 8.6-12.7 10.4-34.1 12.8-69.9 14-103.1 15.6-29.9-.6-57.1-2.6-83.8-8.2-10.9-2.3-22-5-31.9-10.8-2.9-1.6-4.5-3.4-5-6.5-.9-5.5-2.1-11.2-2.8-16.7-4.7-40.4-8.9-80.7-13.7-121.1-4.7-39.2-9.7-78.6-14.5-117.8-1-8.3-1.6-16.7-2.3-25-.4-4.9 1.4-5.9 6-4 16.5 6.7 33.6 11.2 51.1 15 43.3 9.2 86.9 10.1 130.7 7.8 24.8-1.3 49-5.3 73.1-11.2 12.5-3.1 24.5-6.8 36.3-11.6 4.4-2.1 6.2-.4 5.7 4z"/></svg>